<svg version="1.1" id="Layer_1" xmlns="http://www.w3.org/2000/svg" xmlns:xlink="http://www.w3.org/1999/xlink" x="0px" y="0px"
	 viewBox="0 0 500 500" style="enable-background:new 0 0 500 500;" xml:space="preserve">
<style type="text/css">
	.st0{fill:none;stroke:#FFFFFF;stroke-width:32;stroke-miterlimit:10;}
	.st1{fill-rule:evenodd;clip-rule:evenodd;fill:#FFFFFF;}
	.st2{fill:#4BA2EC;}
	.st3{fill:#173652;}
	.st4{fill:#0E2034;}
	.st5{fill:url(#SVGID_1_);}
	.st6{fill:url(#SVGID_00000121249147184216905090000007049397428772044730_);}
	.st7{fill:#E36B00;}
	.st8{fill:url(#SVGID_00000005228094244370200530000008029050525623197630_);}
	.st9{fill:url(#SVGID_00000025429195737061541930000003605274265933592213_);}
	.st10{fill:url(#SVGID_00000050622397556858783880000000741294252790761915_);}
	.st11{fill:#84B135;}
	.st12{fill:url(#SVGID_00000176028407672305467530000004781788719186380432_);}
	.st13{fill:url(#SVGID_00000078743125504933479670000015034555388944122277_);}
	.st14{fill:url(#SVGID_00000009549890143889419100000016365497710719047572_);}
	.st15{fill:#0096A4;}
	.st16{fill:url(#SVGID_00000121252810463177435290000013978921173660387246_);}
	.st17{fill:url(#SVGID_00000025432681229302692360000014433284941455472818_);}
	.st18{fill:url(#SVGID_00000013890902440449266670000016477490066084737152_);}
	.st19{fill:#18517C;}
	.st20{fill:url(#SVGID_00000132088138407188259670000004161489418599360443_);}
</style>
<g>
	<g>
		<linearGradient id="SVGID_1_" gradientUnits="userSpaceOnUse" x1="13.43" y1="234.3677" x2="497.6422" y2="234.3677">
			<stop  offset="2.781384e-04" style="stop-color:#55B9C2"/>
			<stop  offset="0.0719" style="stop-color:#44A9AF"/>
			<stop  offset="0.1975" style="stop-color:#2C9295"/>
			<stop  offset="0.3363" style="stop-color:#1A8181"/>
			<stop  offset="0.4932" style="stop-color:#0D7473"/>
			<stop  offset="0.6835" style="stop-color:#056D6B"/>
			<stop  offset="1" style="stop-color:#036B68"/>
		</linearGradient>
		<path class="st5" d="M415.25,1.48H120.18c-30.23,0-56.53,16.78-70.1,41.53l0-0.01l-36.27,57.11c-0.65,1.02-0.45,2.36,0.46,3.15
			l419.04,363.4c1.08,0.93,2.72,0.75,3.57-0.4l41.45-56.28l4-5.93c9.62-13.19,15.32-29.43,15.32-47c0,0,0-21.46,0-28.55
			c0-8.26,0-46.09,0-53.32c0-17.08,0-47.43,0-63.71c0-5.67,0-88.07,0-94.98V83.87C497.64,38.37,460.76,1.48,415.25,1.48z"/>
		<g id="Watch_4_">
			<g id="Body_7_">
				<g id="Body_8_">

						<linearGradient id="SVGID_00000178163674323283206730000012309146602373224112_" gradientUnits="userSpaceOnUse" x1="2.6938" y1="284.4584" x2="448.5651" y2="284.4584">
						<stop  offset="2.781384e-04" style="stop-color:#55B9C2"/>
						<stop  offset="0.0719" style="stop-color:#44A9AF"/>
						<stop  offset="0.1975" style="stop-color:#2C9295"/>
						<stop  offset="0.3363" style="stop-color:#1A8181"/>
						<stop  offset="0.4932" style="stop-color:#0D7473"/>
						<stop  offset="0.6835" style="stop-color:#056D6B"/>
						<stop  offset="1" style="stop-color:#036B68"/>
					</linearGradient>
					<path style="fill:url(#SVGID_00000178163674323283206730000012309146602373224112_);" d="M377.59,70.4H73.67
						c-39.2,0-70.97,31.78-70.97,70.97v286.18c0,39.2,31.78,70.97,70.97,70.97h303.93c39.2,0,70.97-31.78,70.97-70.97v-29.05v-36.88
						v2.59v-25.66v-57.09v-27.83v-49.25v-31.1v-31.91C448.57,102.17,416.79,70.4,377.59,70.4z"/>
				</g>
			</g>
		</g>
	</g>
	<path class="st15" d="M378.8,70.4h-308c-37.8,0-68.44,30.64-68.44,68.44v291.18c0,37.8,30.64,68.44,68.44,68.44h308
		c37.8,0,68.44-30.64,68.44-68.44V138.84C447.24,101.04,416.6,70.4,378.8,70.4z"/>
	<path d="M376.92,76.27H73.51c-35.69,0-64.63,28.94-64.63,64.63v287.06c0,35.69,28.94,64.63,64.63,64.63h303.41
		c35.69,0,64.63-28.94,64.63-64.63V140.9C441.55,105.21,412.62,76.27,376.92,76.27z"/>
	<g>

			<linearGradient id="SVGID_00000033368636484646231700000015384724991465615270_" gradientUnits="userSpaceOnUse" x1="47.6032" y1="251.5482" x2="401.9953" y2="251.5482">
			<stop  offset="5.719042e-03" style="stop-color:#9E9E9E"/>
			<stop  offset="9.297593e-03" style="stop-color:#9C9C9C"/>
			<stop  offset="0.053" style="stop-color:#868686"/>
			<stop  offset="0.1041" style="stop-color:#757575"/>
			<stop  offset="0.1678" style="stop-color:#6A6A6A"/>
			<stop  offset="0.2572" style="stop-color:#636363"/>
			<stop  offset="0.5054" style="stop-color:#616161"/>
			<stop  offset="0.7393" style="stop-color:#636363"/>
			<stop  offset="0.8307" style="stop-color:#6A6A6A"/>
			<stop  offset="0.8972" style="stop-color:#767676"/>
			<stop  offset="0.9513" style="stop-color:#878787"/>
			<stop  offset="0.9978" style="stop-color:#9D9D9D"/>
			<stop  offset="0.9991" style="stop-color:#9E9E9E"/>
		</linearGradient>
		<path style="fill:url(#SVGID_00000033368636484646231700000015384724991465615270_);" d="M349.06,170.99H100.54
			c-29.24,0-52.94,23.7-52.94,52.94v55.25c0,29.24,23.7,52.94,52.94,52.94h248.52c29.24,0,52.94-23.7,52.94-52.94v-55.25
			C402,194.69,378.29,170.99,349.06,170.99z"/>
		<g>
			<path class="st1" d="M156.88,211.09L156.88,211.09c16.69,0,30.35,13.66,30.35,30.35v20.22c0,16.69-13.66,30.35-30.35,30.35l0,0
				c-16.69,0-30.35-13.66-30.35-30.35v-20.22C126.53,224.74,140.18,211.09,156.88,211.09L156.88,211.09z M292.72,211.09
				L292.72,211.09c16.69,0,30.35,13.66,30.35,30.35v20.22c0,16.69-13.66,30.35-30.35,30.35l0,0c-16.69,0-30.35-13.66-30.35-30.35
				v-20.22C262.37,224.74,276.03,211.09,292.72,211.09z"/>
		</g>
	</g>
</g>
</svg>